{"title":"3 Days To Kill 2014 LATiNO SUBBED READNFO CAM XViD DTK","uid":9655392,"size":1476346194,"categoryP":"video","categoryS":"movies","magnet":"?xt=urn:btih:195c947532f48d19d79f6bd69a3c5785ca058489&amp;dn=3+Days+To+Kill+2014+LATiNO+SUBBED+READNFO+CAM+XViD+DTK&amp;tr=udp%3A%2F%2Ftracker.openbittorrent.com%3A80&amp;tr=udp%3A%2F%2Fopen.demonii.com%3A1337&amp;tr=udp%3A%2F%2Ftracker.coppersurfer.tk%3A6969&amp;tr=udp%3A%2F%2Fexodus.desync.com%3A6969","seeders":5,"leechers":0,"uploader":"xxxlavalxxx","files":-1,"time":1393174492,"description":" &lt;a href=&quot;http://www.imdb.com/title/tt2172934/&quot; rel=&quot;nofollow&quot; target=&quot;_NEW&quot;&gt;http://www.imdb.com/title/tt2172934/&lt;/a&gt;\n\n\nA dying Secret Service Agent trying to reconnect with his estranged daughter is offered an experimental drug that could save his life in exchange for one last assignment.\n\nDirector: McG\nWriters: Adi Hasak (screenplay), Luc Besson (screenplay)\nStars: Kevin Costner, Hailee Steinfeld, Connie Nielsen \nGenres: Action | Crime | Drama | Thriller\nCountry: USA\nLanguage: English\n\n\n\nGeneral\nComplete name                            : 3 Days To Kill 2014 LATiNO SUBBED READNFO CAM XViD DTK/Days.avi\nFormat                                   : AVI\nFormat/Info                              : Audio Video Interleave\nFile size                                : 1.36 GiB\nDuration                                 : 1h 51mn\nOverall bit rate                         : 1 758 Kbps\nWriting application                      : VirtualDubMod 1.5.10.2 (build 2540/release)\nWriting library                          : VirtualDubMod build 2540/release\n\nVideo\nID                                       : 0\nFormat                                   : MPEG-4 Visual\nFormat profile                           : Advanced Simple@L5\nFormat settings, BVOP                    : 2\nFormat settings, QPel                    : No\nFormat settings, GMC                     : No warppoints\nFormat settings, Matrix                  : Default (H.263)\nMuxing mode                              : Packed bitstream\nCodec ID                                 : XVID\nCodec ID/Hint                            : XviD\nDuration                                 : 1h 51mn\nBit rate                                 : 1 619 Kbps\nWidth                                    : 692 pixels\nHeight                                   : 304 pixels\nDisplay aspect ratio                     : 2.25:1\nFrame rate                               : 29.970 fps\nColor space                              : YUV\nChroma subsampling                       : 4:2:0\nBit depth                                : 8 bits\nScan type                                : Progressive\nCompression mode                         : Lossy\nBits/(Pixel*Frame)                       : 0.257\nStream size                              : 1.26 GiB (92%)\nWriting library                          : XviD 64\n\nAudio\nID                                       : 1\nFormat                                   : MPEG Audio\nFormat version                           : Version 1\nFormat profile                           : Layer 3\nCodec ID                                 : 55\nCodec ID/Hint                            : MP3\nDuration                                 : 1h 51mn\nBit rate mode                            : Constant\nBit rate                                 : 128 Kbps\nChannel(s)                               : 2 channels\nSampling rate                            : 48.0 KHz\nCompression mode                         : Lossy\nStream size                              : 102 MiB (7%)\nAlignment                                : Split accross interleaves\nInterleave, duration                     : 33 ms (1.00 video frame)\nInterleave, preload duration             : 500 ms\n\n\nscreens\n &lt;a href=&quot;\nhttp://i.imgur.com/GcrSDK5.jpg&quot; rel=&quot;nofollow&quot; target=&quot;_NEW&quot;&gt;\nhttp://i.imgur.com/GcrSDK5.jpg&lt;/a&gt; &lt;a href=&quot;\nhttp://i.imgur.com/xYFQUhF.jpg&quot; rel=&quot;nofollow&quot; target=&quot;_NEW&quot;&gt;\nhttp://i.imgur.com/xYFQUhF.jpg&lt;/a&gt; &lt;a href=&quot;\nhttp://i.imgur.com/dHdPTul.jpg&quot; rel=&quot;nofollow&quot; target=&quot;_NEW&quot;&gt;\nhttp://i.imgur.com/dHdPTul.jpg&lt;/a&gt; &lt;a href=&quot;\nhttp://i.imgur.com/Gcxa8Ro.jpg&quot; rel=&quot;nofollow&quot; target=&quot;_NEW&quot;&gt;\nhttp://i.imgur.com/Gcxa8Ro.jpg&lt;/a&gt; &lt;a href=&quot;\nhttp://i.imgur.com/GSdt7RY.jpg&quot; rel=&quot;nofollow&quot; target=&quot;_NEW&quot;&gt;\nhttp://i.imgur.com/GSdt7RY.jpg&lt;/a&gt;\n","torrent":{"xt":"urn:btih:195c947532f48d19d79f6bd69a3c5785ca058489","amp;dn":"3+Days+To+Kill+2014+LATiNO+SUBBED+READNFO+CAM+XViD+DTK","amp;tr":["udp%3A%2F%2Ftracker.openbittorrent.com%3A80","udp%3A%2F%2Fopen.demonii.com%3A1337","udp%3A%2F%2Ftracker.coppersurfer.tk%3A6969","udp%3A%2F%2Fexodus.desync.com%3A6969"],"infoHash":"195c947532f48d19d79f6bd69a3c5785ca058489","infoHashBuffer":{"type":"Buffer","data":[25,92,148,117,50,244,141,25,215,159,107,214,154,60,87,133,202,5,132,137]},"announce":[],"urlList":[]}}